<svg width="32" height="32" viewBox="0 0 32 32" fill="none" xmlns="http://www.w3.org/2000/svg">
<g clip-path="url(#clip0_1_2)">
<path d="M2.24544 11.7178C2.56312 10.5834 2.96021 9.69972 3.43672 9.06659C3.92081 8.43346 4.3973 8.11693 4.86627 8.11693C5.33521 8.11693 5.72095 8.44668 6.02349 9.10615C6.33361 9.75249 6.48867 10.6956 6.48867 11.9354C6.48867 13.9139 6.17855 15.5956 5.55834 16.9806C4.93809 18.3655 4.19309 19.058 3.32327 19.058C3.01316 19.058 2.69926 18.9525 2.38159 18.7415C3.12283 18.4381 3.71281 17.6005 4.15149 16.2288C4.59016 14.857 4.80954 13.4918 4.80954 12.1333C4.80954 11.5002 4.74147 10.9858 4.6053 10.5901C4.47674 10.1944 4.29142 9.99648 4.04936 9.99648C3.58801 9.99648 3.17956 10.4845 2.82406 11.4606C2.46857 12.4367 2.19628 13.7754 2.00719 15.4769C1.8181 17.1653 1.72355 18.9261 1.72355 20.7595C1.72355 22.6061 1.79919 24.2087 1.95046 25.5673C1.33024 25.5277 0.86886 25.3497 0.566314 25.0331C0.271332 24.7297 0.12384 24.1427 0.12384 23.2722C0.12384 22.9556 0.237295 21.2871 0.464206 18.2666C0.698679 15.2329 0.815914 12.8983 0.815914 11.2627C0.815914 9.62717 0.759187 8.24881 0.645733 7.12766C1.25083 7.39147 1.66683 7.8795 1.89374 8.59179C2.12821 9.30402 2.24544 10.346 2.24544 11.7178Z" fill="#D94545"/>
<path d="M9.4205 12.9445C9.6701 11.454 10.0596 10.2009 10.5891 9.18531C11.1185 8.15648 11.6102 7.64207 12.064 7.64207C12.5254 7.64207 12.8506 7.8861 13.0397 8.37413C13.2364 8.84894 13.3347 9.50184 13.3347 10.3328C13.3347 11.1506 13.259 12.3047 13.1078 13.7952C12.964 15.2857 12.8922 16.3739 12.8922 17.0597C12.8922 17.7324 12.9414 18.227 13.0397 18.5436C13.138 18.847 13.3044 19.1108 13.5389 19.335C13.4406 19.3482 13.3006 19.3548 13.1191 19.3548C12.4838 19.3548 12.03 19.1833 11.7576 18.8404C11.4929 18.4975 11.3606 17.8973 11.3606 17.0399C11.3606 16.5519 11.4362 15.6022 11.5875 14.1909C11.7388 12.7664 11.8144 11.7046 11.8144 11.0055C11.8144 10.135 11.6631 9.69972 11.3606 9.69972C11.179 9.69972 10.9786 9.87776 10.7592 10.2339C10.5399 10.5901 10.3281 11.0781 10.1239 11.698C9.92724 12.3047 9.76084 13.0896 9.6247 14.0524C9.48857 15.0153 9.4205 15.9782 9.4205 16.941C9.4205 17.8907 9.44317 18.5963 9.48857 19.058C9.24651 19.0844 9.0877 19.0976 9.01204 19.0976C8.58091 19.0976 8.27083 18.9723 8.08171 18.7217C7.89263 18.4579 7.7981 18.0424 7.7981 17.4752C7.7981 16.9081 7.86237 15.8265 7.99097 14.2305C8.39938 9.3238 8.60363 5.59763 8.60363 3.05196C8.60363 1.90443 8.55823 1.13282 8.46745 0.737122C9.03476 1.00092 9.4205 1.40321 9.6247 1.944C9.8365 2.47161 9.94237 3.22343 9.94237 4.19949C9.94237 4.85899 9.86676 6.24393 9.71549 8.35435C9.57176 10.4647 9.47343 11.9948 9.4205 12.9445Z" fill="#D94545"/>
<path d="M18.203 9.14575C17.7113 9.14575 17.2726 9.72611 16.8869 10.8868C16.5011 12.0344 16.3082 13.1819 16.3082 14.3294C16.3082 16.73 16.6638 17.9303 17.3747 17.9303C17.8815 17.9303 18.2937 17.3565 18.6114 16.209C18.929 15.0483 19.0879 13.749 19.0879 12.3113C19.0879 10.2009 18.7929 9.14575 18.203 9.14575ZM17.2386 7.36508C17.3218 7.36508 17.3974 7.41125 17.4655 7.50357C17.5411 7.58273 17.579 7.66845 17.579 7.76078C16.815 8.68411 16.3574 9.97009 16.2062 11.6189C16.365 10.8802 16.5578 10.2405 16.7848 9.69972C17.0192 9.15892 17.2613 8.75005 17.5109 8.47307C17.9874 7.95866 18.4526 7.70145 18.9064 7.70145C19.3602 7.70145 19.7459 8.09054 20.0636 8.86877C20.3813 9.64694 20.5401 10.689 20.5401 11.9947C20.5401 13.4589 20.3699 14.8042 20.0296 16.0309C19.6514 17.4159 19.1144 18.3721 18.4185 18.8997C18.0252 19.2031 17.5941 19.3548 17.1251 19.3548C16.4671 19.3548 15.8922 18.9129 15.4006 18.0292C14.9165 17.1323 14.6745 15.8528 14.6745 14.1909C14.6745 12.5158 14.909 11.0451 15.3779 9.77888C15.8468 8.4994 16.4671 7.69484 17.2386 7.36508Z" fill="#D94545"/>
<path d="M24.2409 9.75904C24.2031 10.2339 24.1236 11.0583 24.0026 12.2322C23.7455 14.7251 23.6169 16.5717 23.6169 17.772C23.6169 18.9723 23.6698 19.7769 23.7757 20.1857C23.1933 19.9219 22.7924 19.5197 22.5731 18.9789C22.3538 18.4249 22.2441 17.6467 22.2441 16.6442C22.2441 15.7605 22.3235 14.5536 22.4823 13.0236C22.6412 11.4804 22.7433 10.4383 22.7887 9.89753C22.3954 10.0162 21.9756 10.2471 21.5293 10.59C21.5142 10.2998 21.5066 10.0822 21.5066 9.93714C21.5066 9.23807 21.6276 8.76321 21.8697 8.51261C22.1117 8.2488 22.4596 8.11031 22.9135 8.09714C22.9664 7.10787 22.9929 6.39563 22.9929 5.96033C22.9929 5.52507 22.9891 5.16236 22.9815 4.87217C22.9815 4.582 22.9815 4.36436 22.9815 4.21927C23.4807 4.3116 23.8438 4.5754 24.0707 5.01067C24.2976 5.43275 24.4111 6.03949 24.4111 6.83088C24.4111 7.14742 24.3922 7.58934 24.3543 8.15647C24.9897 8.13008 25.4549 7.91248 25.7498 7.50357C25.765 7.76738 25.7725 7.9652 25.7725 8.09714C25.7725 8.73027 25.7082 9.17213 25.5797 9.42273C25.4511 9.66015 25.2355 9.77887 24.933 9.77887C24.6304 9.77887 24.3997 9.77226 24.2409 9.75904Z" fill="#D94545"/>
<path d="M29.5817 9.14575C29.09 9.14575 28.6513 9.72611 28.2656 10.8868C27.8799 12.0344 27.687 13.1819 27.687 14.3294C27.687 16.73 28.0425 17.9303 28.7535 17.9303C29.2602 17.9303 29.6724 17.3565 29.9901 16.209C30.3078 15.0483 30.4666 13.749 30.4666 12.3113C30.4666 10.2009 30.1716 9.14575 29.5817 9.14575ZM28.6173 7.36508C28.7005 7.36508 28.7761 7.41125 28.8442 7.50357C28.9199 7.58273 28.9577 7.66845 28.9577 7.76078C28.1937 8.68411 27.7361 9.97009 27.5849 11.6189C27.7437 10.8802 27.9366 10.2405 28.1635 9.69972C28.398 9.15892 28.64 8.75005 28.8896 8.47307C29.3661 7.95866 29.8313 7.70145 30.2851 7.70145C30.7389 7.70145 31.1247 8.09054 31.4423 8.86877C31.76 9.64694 31.9189 10.689 31.9189 11.9947C31.9189 13.4589 31.7487 14.8042 31.4083 16.0309C31.0301 17.4159 30.4931 18.3721 29.7972 18.8997C29.4039 19.2031 28.9728 19.3548 28.5039 19.3548C27.8458 19.3548 27.271 18.9129 26.7793 18.0292C26.2953 17.1323 26.0532 15.8528 26.0532 14.1909C26.0532 12.5158 26.2877 11.0451 26.7566 9.77888C27.2256 8.4994 27.8458 7.69484 28.6173 7.36508Z" fill="#D94545"/>
<path d="M4.96835 31.9035C4.65635 31.9035 4.33868 31.8342 4.01534 31.6957C3.69767 31.5671 3.43105 31.394 3.21548 31.1763L3.26654 29.1138H3.51329L3.77708 30.1377C3.85649 30.4245 3.93875 30.6619 4.02386 30.8499C4.10894 31.0379 4.2224 31.1813 4.36421 31.2802C4.46066 31.3495 4.55141 31.3989 4.63649 31.4286C4.72727 31.4484 4.82654 31.4583 4.93433 31.4583C5.28035 31.4583 5.55266 31.305 5.7512 30.9983C5.95541 30.6817 6.05753 30.2662 6.05753 29.7518C6.05753 29.2869 5.98661 28.9209 5.8448 28.6537C5.70866 28.3867 5.48741 28.1295 5.18108 27.8822L4.83221 27.6151C4.35569 27.2491 3.97847 26.8237 3.70049 26.3389C3.42821 25.8542 3.29207 25.2112 3.29207 24.4099C3.29207 23.8163 3.37716 23.3118 3.54734 22.8963C3.7232 22.471 3.96428 22.1445 4.27061 21.917C4.57694 21.6894 4.93433 21.5757 5.34275 21.5757C5.64341 21.5757 5.92421 21.645 6.18515 21.7835C6.45179 21.9219 6.68435 22.1099 6.88293 22.3473L6.82334 24.1873H6.57659L6.26174 23.0744C6.17099 22.748 6.08306 22.5155 5.99795 22.377C5.91854 22.2286 5.81927 22.1346 5.70014 22.0951C5.63207 22.0753 5.57252 22.0604 5.52146 22.0505C5.47607 22.0407 5.41367 22.0357 5.33426 22.0357C5.05628 22.0357 4.8152 22.1792 4.61099 22.466C4.41242 22.743 4.31315 23.1288 4.31315 23.6235C4.31315 24.0983 4.38974 24.4841 4.54289 24.7809C4.69607 25.0776 4.91729 25.3398 5.20661 25.5673L5.58953 25.8492C6.13979 26.2647 6.53402 26.7099 6.77228 27.1847C7.01054 27.6497 7.12967 28.2482 7.12967 28.9802C7.12967 29.8508 6.93966 30.5581 6.55955 31.1022C6.18515 31.6364 5.65475 31.9035 4.96835 31.9035Z" fill="white"/>
<path d="M8.59244 31.6512V31.3396L8.93279 31.2209C9.17105 31.1318 9.29018 30.8895 9.29018 30.4937V26.4428C9.29018 25.7503 9.29018 25.0578 9.29018 24.3654C9.29018 23.6729 9.28733 22.9804 9.28166 22.2879H8.60945C8.42792 22.2879 8.2946 22.372 8.20952 22.5402C8.12444 22.7084 8.03933 22.9458 7.95425 23.2525L7.65644 24.3505H7.41818L7.46072 21.8428H12.345L12.3875 24.3505H12.1492L11.8514 23.2525C11.7663 22.9458 11.6812 22.7084 11.5962 22.5402C11.5111 22.372 11.3778 22.2879 11.1962 22.2879H10.5155V30.4937C10.5155 30.8994 10.6346 31.1417 10.8729 31.2209L11.2218 31.3396V31.6512H8.59244Z" fill="white"/>
<path d="M15.3424 31.9035C14.9169 31.9035 14.5397 31.7699 14.2106 31.5028C13.8873 31.2357 13.632 30.8153 13.4448 30.2415C13.2633 29.6579 13.1725 28.8912 13.1725 27.9415V26.3389C13.1725 25.785 13.1725 25.226 13.1725 24.6621C13.1725 24.0982 13.1697 23.5294 13.164 22.9557C13.164 22.5699 13.0591 22.3275 12.8492 22.2286L12.662 22.1544V21.8428H14.9594V22.1544L14.7212 22.2434C14.5056 22.3325 14.3978 22.5798 14.3978 22.9854C14.3922 23.5394 14.3894 24.0982 14.3894 24.6621C14.3894 25.2161 14.3894 25.775 14.3894 26.3389V28.2234C14.3894 29.183 14.5 29.8755 14.7212 30.3008C14.9481 30.7262 15.2686 30.9389 15.6827 30.9389C16.1195 30.9389 16.4599 30.7114 16.7038 30.2564C16.9534 29.7914 17.0782 29.1039 17.0782 28.1938V23.0299C17.0782 22.832 17.0555 22.6589 17.0102 22.5105C16.9648 22.3621 16.8854 22.2682 16.7719 22.2286L16.5677 22.1544V21.8428H17.8781V22.1544L17.6398 22.2434C17.532 22.283 17.4583 22.372 17.4186 22.5105C17.3789 22.649 17.359 22.8172 17.359 23.015V28.1047C17.359 29.3314 17.1746 30.2712 16.8059 30.9241C16.4372 31.577 15.9494 31.9035 15.3424 31.9035Z" fill="white"/>
<path d="M18.1216 31.6512V31.3396L18.2918 31.2357C18.4734 31.1368 18.5641 30.8895 18.5641 30.4937C18.5698 29.9299 18.5726 29.3561 18.5726 28.7725C18.5726 28.1789 18.5726 27.5755 18.5726 26.9621V26.4428C18.5726 25.869 18.5726 25.2953 18.5726 24.7215C18.5726 24.1477 18.5698 23.574 18.5641 23.0002C18.5641 22.5946 18.4762 22.3423 18.3004 22.2434L18.1216 22.1544V21.8428H20.3596C20.9552 21.8428 21.4686 22.0357 21.8997 22.4215C22.3308 22.8073 22.6627 23.3662 22.8953 24.0983C23.1278 24.8204 23.2441 25.6959 23.2441 26.7247C23.2441 27.7733 23.1165 28.6637 22.8612 29.3957C22.6116 30.1277 22.2571 30.6867 21.7976 31.0725C21.3438 31.4583 20.8134 31.6512 20.2064 31.6512H18.1216ZM19.798 31.2209H20.2319C20.6347 31.2209 20.9609 31.0824 21.2105 30.8054C21.4657 30.5284 21.6529 30.0634 21.7721 29.4105C21.8912 28.7477 21.9508 27.8574 21.9508 26.7396C21.9508 25.6217 21.8912 24.7364 21.7721 24.0835C21.6529 23.4306 21.4686 22.9656 21.219 22.6886C20.975 22.4116 20.6574 22.2731 20.266 22.2731H19.798C19.7923 22.9557 19.7894 23.6482 19.7894 24.3505C19.7894 25.043 19.7894 25.7404 19.7894 26.4428V26.9473C19.7894 27.6892 19.7894 28.4164 19.7894 29.1286C19.7894 29.831 19.7923 30.5284 19.798 31.2209Z" fill="white"/>
<path d="M23.4066 31.6512V31.3396L23.5768 31.2506C23.6902 31.1813 23.764 31.0922 23.798 30.9834C23.8377 30.8647 23.8576 30.7015 23.8576 30.4937V23.0002C23.8576 22.7924 23.8377 22.6342 23.798 22.5254C23.764 22.4067 23.6902 22.3127 23.5768 22.2434L23.4066 22.1544V21.8428H25.5339V22.1544L25.3637 22.2434C25.2559 22.3127 25.1822 22.4067 25.1425 22.5254C25.1028 22.6342 25.0829 22.7924 25.0829 23.0002V30.4937C25.0829 30.7015 25.1028 30.8647 25.1425 30.9834C25.1822 31.0922 25.2559 31.1813 25.3637 31.2506L25.5339 31.3396V31.6512H23.4066Z" fill="white"/>
<path d="M28.4297 31.9035C28.0836 31.9035 27.7518 31.7946 27.4342 31.577C27.1165 31.3594 26.83 31.0379 26.5747 30.6125C26.3251 30.1772 26.1266 29.6381 25.9791 28.995C25.8316 28.3521 25.7578 27.6002 25.7578 26.7396C25.7578 25.8987 25.8316 25.1568 25.9791 24.5138C26.1266 23.8707 26.3251 23.3316 26.5747 22.8963C26.83 22.4611 27.1165 22.1346 27.4342 21.917C27.7575 21.6894 28.0894 21.5757 28.4297 21.5757C28.7701 21.5757 29.0991 21.6845 29.4168 21.9022C29.7401 22.1198 30.0266 22.4462 30.2762 22.8815C30.5258 23.3069 30.7243 23.8411 30.8718 24.4841C31.0193 25.1271 31.093 25.8789 31.093 26.7396C31.093 27.5804 31.0193 28.3224 30.8718 28.9654C30.7243 29.6084 30.5258 30.1475 30.2762 30.5828C30.0266 31.0181 29.743 31.3495 29.4253 31.577C29.1076 31.7946 28.7758 31.9035 28.4297 31.9035ZM28.4297 31.4583C28.753 31.4583 29.014 31.3148 29.2126 31.028C29.4111 30.7312 29.5558 30.2366 29.6465 29.5441C29.7373 28.8516 29.7826 27.9168 29.7826 26.7396C29.7826 25.5624 29.7373 24.6324 29.6465 23.9499C29.5558 23.2574 29.4111 22.7677 29.2126 22.4808C29.014 22.1841 28.753 22.0357 28.4297 22.0357C28.112 22.0357 27.8511 22.1841 27.6469 22.4808C27.4483 22.7677 27.3037 23.2574 27.2129 23.9499C27.1221 24.6324 27.0768 25.5624 27.0768 26.7396C27.0768 27.9168 27.1221 28.8516 27.2129 29.5441C27.3037 30.2366 27.4483 30.7312 27.6469 31.028C27.8511 31.3148 28.112 31.4583 28.4297 31.4583Z" fill="white"/>
<path d="M15.5466 6.091C15.7281 6.0183 15.9348 1.09602 15.9841 1.09602C16.0433 1.09602 16.0638 1.75376 16.0716 1.80976C16.1486 2.36824 16.3345 3.00878 16.5966 3.2368C16.9139 3.51275 17.4733 1.5617 17.5591 1.04858C17.5614 1.03503 17.6377 0.385636 17.6685 0.430202C17.9727 0.871158 17.8589 3.85696 18.9154 3.56983C19.5495 3.39755 19.8187 0.627506 19.9436 0.763234C19.9886 0.812 19.9014 2.01928 19.8999 2.09511C19.8711 3.47184 19.9654 4.82118 19.9654 6.18616C18.7054 5.89517 17.4146 5.75558 16.1735 6.18616" stroke="url(#paint0_linear_1_2)" stroke-opacity="0.9" stroke-linecap="round" stroke-linejoin="round"/>
</g>
<defs>
<linearGradient id="paint0_linear_1_2" x1="17.756" y1="0.428009" x2="17.756" y2="6.18616" gradientUnits="userSpaceOnUse">
<stop stop-color="#F5BA14"/>
<stop offset="1" stop-color="#EC9324"/>
</linearGradient>
<clipPath id="clip0_1_2">
<rect width="32" height="32" fill="white"/>
</clipPath>
</defs>
</svg>
