<svg width="92" height="61" viewBox="0 0 92 61" fill="none" xmlns="http://www.w3.org/2000/svg">
<path d="M6.45563 22.337C7.36894 20.1747 8.51058 18.4901 9.88055 17.2832C11.2723 16.0763 12.6422 15.4729 13.9905 15.4729C15.3387 15.4729 16.4477 16.1015 17.3175 17.3586C18.2091 18.5907 18.6549 20.3884 18.6549 22.7519C18.6549 26.5234 17.7633 29.7292 15.9802 32.3693C14.197 35.0093 12.0551 36.3293 9.55437 36.3293C8.6628 36.3293 7.76036 36.1282 6.84705 35.7259C8.97811 35.1476 10.6743 33.551 11.9355 30.9361C13.1967 28.3212 13.8274 25.7188 13.8274 23.1291C13.8274 21.9222 13.6317 20.9416 13.2402 20.1873C12.8706 19.433 12.3378 19.0558 11.6419 19.0558C10.3155 19.0558 9.1412 19.9861 8.11916 21.8467C7.09713 23.7074 6.31429 26.2594 5.77065 29.5029C5.22701 32.7213 4.95519 36.0779 4.95519 39.5728C4.95519 43.0929 5.17265 46.1478 5.60756 48.7376C3.82443 48.6622 2.49795 48.3228 1.62813 47.7193C0.780056 47.141 0.356018 46.0221 0.356018 44.3627C0.356018 43.7592 0.682201 40.5786 1.33457 34.8207C2.00868 29.0378 2.34573 24.5874 2.34573 21.4696C2.34573 18.3518 2.18264 15.7243 1.85646 13.5871C3.5961 14.09 4.7921 15.0203 5.44447 16.3781C6.11858 17.7358 6.45563 19.7221 6.45563 22.337Z" fill="#D94545"/>
<path d="M27.0839 24.6754C27.8015 21.8342 28.9214 19.4455 30.4436 17.5095C31.9657 15.5483 33.3792 14.5677 34.6839 14.5677C36.0104 14.5677 36.9455 15.0329 37.4891 15.9632C38.0545 16.8683 38.3372 18.1129 38.3372 19.697C38.3372 21.2559 38.1197 23.4559 37.6848 26.2971C37.2716 29.1383 37.0651 31.2127 37.0651 32.5201C37.0651 33.8024 37.2064 34.7453 37.4891 35.3488C37.7718 35.9271 38.2502 36.4299 38.9243 36.8574C38.6416 36.8825 38.2393 36.8951 37.7174 36.8951C35.8908 36.8951 34.5861 36.5682 33.8032 35.9145C33.0421 35.2608 32.6616 34.1167 32.6616 32.4824C32.6616 31.5521 32.8791 29.7418 33.314 27.0514C33.7489 24.3359 33.9663 22.3119 33.9663 20.9793C33.9663 19.3198 33.5314 18.4901 32.6616 18.4901C32.1397 18.4901 31.5635 18.8295 30.9328 19.5084C30.3022 20.1873 29.6933 21.1176 29.1062 22.2993C28.5408 23.4559 28.0624 24.952 27.671 26.7874C27.2796 28.6229 27.0839 30.4584 27.0839 32.2938C27.0839 34.1042 27.1491 35.4493 27.2796 36.3293C26.5837 36.3796 26.1271 36.4048 25.9096 36.4048C24.6701 36.4048 23.7786 36.1659 23.2349 35.6882C22.6913 35.1853 22.4195 34.3933 22.4195 33.3121C22.4195 32.231 22.6043 30.1692 22.974 27.1269C24.1482 17.7735 24.7354 10.6705 24.7354 5.81782C24.7354 3.63034 24.6049 2.15945 24.3439 1.40515C25.9749 1.90802 27.0839 2.67489 27.671 3.70577C28.2799 4.71151 28.5843 6.14468 28.5843 8.0053C28.5843 9.26247 28.3669 11.9025 27.932 15.9255C27.5188 19.9484 27.2361 22.8651 27.0839 24.6754Z" fill="#D94545"/>
<path d="M52.3335 17.4341C50.92 17.4341 49.6588 18.5404 48.5498 20.753C47.4407 22.9405 46.8862 25.128 46.8862 27.3154C46.8862 31.8915 47.9083 34.1796 49.9523 34.1796C51.4093 34.1796 52.5944 33.0858 53.5077 30.8984C54.421 28.6858 54.8777 26.2091 54.8777 23.4685C54.8777 19.4455 54.0296 17.4341 52.3335 17.4341ZM49.5609 14.0397C49.8001 14.0397 50.0176 14.1277 50.2133 14.3037C50.4307 14.4546 50.5395 14.618 50.5395 14.794C48.3432 16.5541 47.0276 19.0055 46.5927 22.1485C47.0493 20.7404 47.6038 19.521 48.2562 18.4901C48.9303 17.4592 49.6262 16.6798 50.3438 16.1518C51.7137 15.1712 53.0511 14.6809 54.3558 14.6809C55.6605 14.6809 56.7696 15.4226 57.6829 16.9061C58.5962 18.3895 59.0528 20.3759 59.0528 22.865C59.0528 25.656 58.5636 28.2206 57.585 30.5589C56.4977 33.199 54.9538 35.0219 52.9532 36.0276C51.8224 36.6059 50.583 36.8951 49.2347 36.8951C47.3429 36.8951 45.6902 36.0528 44.2768 34.3682C42.885 32.6584 42.1892 30.2195 42.1892 27.0514C42.1892 23.8582 42.8633 21.0547 44.2115 18.641C45.5597 16.202 47.3429 14.6683 49.5609 14.0397Z" fill="#D94545"/>
<path d="M69.6925 18.6032C69.5838 19.5084 69.3554 21.0799 69.0075 23.3176C68.2682 28.0697 67.8985 31.5898 67.8985 33.8779C67.8985 36.1659 68.0507 37.6997 68.3552 38.4791C66.6807 37.9762 65.5282 37.2094 64.8976 36.1785C64.267 35.1225 63.9517 33.639 63.9517 31.7281C63.9517 30.0435 64.18 27.7429 64.6367 24.8262C65.0933 21.8845 65.3869 19.8981 65.5174 18.8672C64.3866 19.0935 63.1797 19.5335 61.8967 20.1873C61.8532 19.6341 61.8315 19.2193 61.8315 18.9427C61.8315 17.6101 62.1794 16.7049 62.8753 16.2272C63.5711 15.7243 64.5714 15.4603 65.8762 15.4352C66.0284 13.5494 66.1045 12.1917 66.1045 11.3619C66.1045 10.5322 66.0936 9.84077 66.0719 9.28761C66.0719 8.73446 66.0719 8.31959 66.0719 8.04301C67.5071 8.21902 68.5509 8.72188 69.2032 9.55162C69.8556 10.3562 70.1818 11.5128 70.1818 13.0214C70.1818 13.6248 70.1274 14.4672 70.0187 15.5483C71.8453 15.498 73.1827 15.0832 74.0307 14.3037C74.0742 14.8066 74.096 15.1837 74.096 15.4352C74.096 16.6421 73.9111 17.4844 73.5415 17.9621C73.1718 18.4147 72.552 18.641 71.6822 18.641C70.8124 18.641 70.1492 18.6284 69.6925 18.6032Z" fill="#D94545"/>
<path d="M85.0473 17.4341C83.6338 17.4341 82.3726 18.5404 81.2636 20.753C80.1546 22.9405 79.6 25.128 79.6 27.3154C79.6 31.8915 80.6221 34.1796 82.6662 34.1796C84.1231 34.1796 85.3082 33.0858 86.2215 30.8984C87.1349 28.6858 87.5915 26.2091 87.5915 23.4685C87.5915 19.4455 86.7434 17.4341 85.0473 17.4341ZM82.2747 14.0397C82.5139 14.0397 82.7314 14.1277 82.9271 14.3037C83.1446 14.4546 83.2533 14.618 83.2533 14.794C81.057 16.5541 79.7414 19.0055 79.3065 22.1485C79.7631 20.7404 80.3176 19.521 80.97 18.4901C81.6441 17.4592 82.34 16.6798 83.0576 16.1518C84.4275 15.1712 85.7649 14.6809 87.0696 14.6809C88.3744 14.6809 89.4834 15.4226 90.3967 16.9061C91.31 18.3895 91.7667 20.3759 91.7667 22.865C91.7667 25.656 91.2774 28.2206 90.2988 30.5589C89.2116 33.199 87.6676 35.0219 85.667 36.0276C84.5363 36.6059 83.2968 36.8951 81.9486 36.8951C80.0567 36.8951 78.404 36.0528 76.9906 34.3682C75.5989 32.6584 74.903 30.2195 74.903 27.0514C74.903 23.8582 75.5771 21.0547 76.9253 18.641C78.2736 16.202 80.0567 14.6683 82.2747 14.0397Z" fill="#D94545"/>
<path d="M14.284 60.816C13.387 60.816 12.4737 60.6839 11.5441 60.4199C10.6308 60.1748 9.86425 59.8448 9.24451 59.4299L9.39129 55.4981H10.1007L10.8591 57.4499C11.0874 57.9967 11.3239 58.4493 11.5686 58.8076C11.8132 59.1659 12.1394 59.4393 12.5471 59.6279C12.8244 59.7599 13.0853 59.8542 13.3299 59.9108C13.5909 59.9485 13.8763 59.9674 14.1862 59.9674C15.181 59.9674 15.9639 59.6751 16.5347 59.0905C17.1218 58.487 17.4154 57.695 17.4154 56.7144C17.4154 55.8281 17.2115 55.1304 16.8038 54.6212C16.4124 54.1121 15.7763 53.6218 14.8956 53.1504L13.8926 52.6412C12.5226 51.9435 11.4381 51.1326 10.6389 50.2086C9.8561 49.2846 9.46468 48.0588 9.46468 46.5314C9.46468 45.3999 9.70932 44.4382 10.1986 43.6461C10.7042 42.8353 11.3973 42.213 12.278 41.7792C13.1587 41.3455 14.1862 41.1287 15.3604 41.1287C16.2248 41.1287 17.0321 41.2607 17.7823 41.5247C18.5489 41.7887 19.2175 42.147 19.7884 42.5996L19.6171 46.1071H18.9077L18.0025 43.9856C17.7416 43.3633 17.4888 42.9201 17.2441 42.6561C17.0158 42.3733 16.7304 42.1941 16.3879 42.1187C16.1922 42.081 16.021 42.0527 15.8742 42.0338C15.7437 42.015 15.5643 42.0055 15.336 42.0055C14.5368 42.0055 13.8437 42.279 13.2566 42.8258C12.6857 43.3539 12.4003 44.0893 12.4003 45.0322C12.4003 45.9373 12.6205 46.6728 13.0608 47.2385C13.5012 47.8042 14.1372 48.304 14.969 48.7377L16.0699 49.2751C17.6519 50.0671 18.7853 50.9157 19.4703 51.8209C20.1553 52.7072 20.4978 53.8481 20.4978 55.2435C20.4978 56.903 19.9515 58.2513 18.8587 59.2885C17.7823 60.3068 16.2574 60.816 14.284 60.816Z" fill="white"/>
<path d="M24.7033 60.3351V59.7411L25.6818 59.5148C26.3668 59.3451 26.7093 58.8831 26.7093 58.1287V50.4066C26.7093 49.0866 26.7093 47.7665 26.7093 46.4465C26.7093 45.1265 26.7011 43.8064 26.6848 42.4864H24.7522C24.2303 42.4864 23.847 42.6467 23.6024 42.9673C23.3578 43.2879 23.1131 43.7404 22.8685 44.325L22.0123 46.4182H21.3273L21.4496 41.6378H35.4918L35.6141 46.4182H34.9291L34.0729 44.325C33.8282 43.7404 33.5836 43.2879 33.339 42.9673C33.0943 42.6467 32.7111 42.4864 32.1892 42.4864H30.2321V58.1287C30.2321 58.9019 30.5746 59.3639 31.2595 59.5148L32.2626 59.7411V60.3351H24.7033Z" fill="white"/>
<path d="M44.1093 60.816C42.8861 60.816 41.8015 60.5614 40.8556 60.0522C39.926 59.5431 39.1921 58.7416 38.6539 57.6479C38.132 56.5353 37.871 55.0738 37.871 53.2635V50.2086C37.871 49.1526 37.871 48.0871 37.871 47.0122C37.871 45.9373 37.8629 44.853 37.8466 43.7593C37.8466 43.0238 37.5449 42.5618 36.9414 42.3733L36.4032 42.2318V41.6378H43.0084V42.2318L42.3234 42.4015C41.7037 42.5713 41.3938 43.0427 41.3938 43.8159C41.3775 44.8719 41.3694 45.9373 41.3694 47.0122C41.3694 48.0682 41.3694 49.1337 41.3694 50.2086V53.8009C41.3694 55.6301 41.6874 56.9502 42.3234 57.761C42.9758 58.5719 43.8973 58.9773 45.0878 58.9773C46.3436 58.9773 47.3222 58.5436 48.0235 57.6762C48.7411 56.7899 49.0999 55.4793 49.0999 53.7444V43.9007C49.0999 43.5236 49.0346 43.1936 48.9042 42.9107C48.7737 42.6278 48.5454 42.4487 48.2192 42.3733L47.6321 42.2318V41.6378H51.3995V42.2318L50.7145 42.4015C50.4046 42.477 50.1926 42.6467 50.0784 42.9107C49.9643 43.1747 49.9072 43.4953 49.9072 43.8724V53.5746C49.9072 55.913 49.3771 57.7045 48.317 58.9491C47.2569 60.1937 45.8544 60.816 44.1093 60.816Z" fill="white"/>
<path d="M52.0997 60.3351V59.7411L52.589 59.5431C53.1109 59.3545 53.3719 58.8831 53.3719 58.1287C53.3882 57.0539 53.3963 55.9601 53.3963 54.8475C53.3963 53.7161 53.3963 52.5658 53.3963 51.3966V50.4066C53.3963 49.3128 53.3963 48.2191 53.3963 47.1254C53.3963 46.0316 53.3882 44.9379 53.3719 43.8442C53.3719 43.071 53.1191 42.5901 52.6135 42.4015L52.0997 42.2318V41.6378H58.5337C60.2462 41.6378 61.7221 42.0055 62.9616 42.741C64.2011 43.4764 65.1552 44.5419 65.8239 45.9373C66.4925 47.3139 66.8269 48.9828 66.8269 50.944C66.8269 52.9429 66.4599 54.6401 65.726 56.0356C65.0084 57.431 63.9891 58.4965 62.6681 59.2319C61.3633 59.9674 59.8384 60.3351 58.0933 60.3351H52.0997ZM56.9191 59.5148H58.1667C59.3247 59.5148 60.2625 59.2508 60.9801 58.7228C61.714 58.1948 62.2522 57.3084 62.5947 56.0638C62.9372 54.8004 63.1084 53.1032 63.1084 50.9723C63.1084 48.8414 62.9372 47.1537 62.5947 45.9091C62.2522 44.6645 61.7221 43.7781 61.0045 43.2501C60.3032 42.7221 59.3899 42.4581 58.2646 42.4581H56.9191C56.9028 43.7593 56.8946 45.0793 56.8946 46.4182C56.8946 47.7382 56.8946 49.0677 56.8946 50.4066V51.3683C56.8946 52.7826 56.8946 54.1687 56.8946 55.5264C56.8946 56.8653 56.9028 58.1948 56.9191 59.5148Z" fill="white"/>
<path d="M67.294 60.3351V59.7411L67.7833 59.5714C68.1094 59.4393 68.3215 59.2696 68.4193 59.0622C68.5335 58.8359 68.5906 58.5248 68.5906 58.1287V43.8442C68.5906 43.4481 68.5335 43.1464 68.4193 42.939C68.3215 42.7127 68.1094 42.5335 67.7833 42.4015L67.294 42.2318V41.6378H73.4099V42.2318L72.9206 42.4015C72.6108 42.5335 72.3987 42.7127 72.2846 42.939C72.1704 43.1464 72.1133 43.4481 72.1133 43.8442V58.1287C72.1133 58.5248 72.1704 58.8359 72.2846 59.0622C72.3987 59.2696 72.6108 59.4393 72.9206 59.5714L73.4099 59.7411V60.3351H67.294Z" fill="white"/>
<path d="M81.7354 60.816C80.7405 60.816 79.7865 60.6085 78.8732 60.1937C77.9598 59.7788 77.1362 59.1659 76.4023 58.355C75.6847 57.5253 75.1139 56.4976 74.6899 55.2718C74.2658 54.0461 74.0538 52.6129 74.0538 50.9723C74.0538 49.3694 74.2658 47.9551 74.6899 46.7294C75.1139 45.5036 75.6847 44.4759 76.4023 43.6461C77.1362 42.8164 77.9598 42.1941 78.8732 41.7792C79.8028 41.3455 80.7569 41.1287 81.7354 41.1287C82.714 41.1287 83.6599 41.3361 84.5732 41.751C85.5028 42.1658 86.3264 42.7881 87.044 43.6179C87.7616 44.4287 88.3324 45.447 88.7565 46.6728C89.1805 47.8985 89.3925 49.3317 89.3925 50.9723C89.3925 52.5752 89.1805 53.9895 88.7565 55.2153C88.3324 56.441 87.7616 57.4687 87.044 58.2985C86.3264 59.1282 85.511 59.7599 84.5977 60.1937C83.6843 60.6085 82.7303 60.816 81.7354 60.816ZM81.7354 59.9674C82.665 59.9674 83.4152 59.6939 83.9861 59.1471C84.5569 58.5813 84.9728 57.6385 85.2337 56.3184C85.4947 54.9984 85.6251 53.2164 85.6251 50.9723C85.6251 48.7283 85.4947 46.9556 85.2337 45.6545C84.9728 44.3344 84.5569 43.401 83.9861 42.8541C83.4152 42.2884 82.665 42.0055 81.7354 42.0055C80.8221 42.0055 80.0719 42.2884 79.4847 42.8541C78.9139 43.401 78.498 44.3344 78.2371 45.6545C77.9761 46.9556 77.8457 48.7283 77.8457 50.9723C77.8457 53.2164 77.9761 54.9984 78.2371 56.3184C78.498 57.6385 78.9139 58.5813 79.4847 59.1471C80.0719 59.6939 80.8221 59.9674 81.7354 59.9674Z" fill="white"/>
<path d="M44.6964 11.611C45.2184 11.4724 45.8127 2.08931 45.9543 2.08931C46.1245 2.08931 46.1834 3.34314 46.2058 3.44988C46.4273 4.51448 46.9617 5.73551 47.7151 6.17017C48.6275 6.6962 50.2357 2.97702 50.4825 1.99888C50.489 1.97305 50.7084 0.735144 50.797 0.820098C51.6714 1.66067 51.3444 7.35235 54.3818 6.80501C56.2047 6.47661 56.9789 1.19621 57.3379 1.45494C57.4671 1.5479 57.2166 3.84928 57.2121 3.99382C57.1294 6.61823 57.4006 9.1904 57.4006 11.7924C53.778 11.2377 50.067 10.9716 46.4989 11.7924" stroke="url(#paint0_linear_5_62)" stroke-opacity="0.9" stroke-linecap="round" stroke-linejoin="round"/>
<defs>
<linearGradient id="paint0_linear_5_62" x1="51.0485" y1="0.815918" x2="51.0485" y2="11.7924" gradientUnits="userSpaceOnUse">
<stop stop-color="#F5BA14"/>
<stop offset="1" stop-color="#EC9324"/>
</linearGradient>
</defs>
</svg>
